<?xml version="1.0" encoding="UTF-8" standalone="no"?>
<!-- Generator: Adobe Illustrator 24.0.0, SVG Export Plug-In . SVG Version: 6.00 Build 0)  -->

<svg
   xmlns:dc="http://purl.org/dc/elements/1.1/"
   xmlns:cc="http://creativecommons.org/ns#"
   xmlns:rdf="http://www.w3.org/1999/02/22-rdf-syntax-ns#"
   xmlns:svg="http://www.w3.org/2000/svg"
   xmlns="http://www.w3.org/2000/svg"
   xmlns:sodipodi="http://sodipodi.sourceforge.net/DTD/sodipodi-0.dtd"
   xmlns:inkscape="http://www.inkscape.org/namespaces/inkscape"
   version="1.1"
   id="Layer_1"
   x="0px"
   y="0px"
   viewBox="0 0 332 480.3"
   style="enable-background:new 0 0 332 480.3;"
   xml:space="preserve"
   sodipodi:docname="human.svg"
   inkscape:version="0.92.4 (unknown)"><metadata
   id="metadata107"><rdf:RDF><cc:Work
       rdf:about=""><dc:format>image/svg+xml</dc:format><dc:type
         rdf:resource="http://purl.org/dc/dcmitype/StillImage" /><dc:title></dc:title></cc:Work></rdf:RDF></metadata><defs
   id="defs105" /><sodipodi:namedview
   pagecolor="#ffffff"
   bordercolor="#666666"
   borderopacity="1"
   objecttolerance="10"
   gridtolerance="10"
   guidetolerance="10"
   inkscape:pageopacity="0"
   inkscape:pageshadow="2"
   inkscape:window-width="3840"
   inkscape:window-height="2061"
   id="namedview103"
   showgrid="true"
   inkscape:pagecheckerboard="true"
   inkscape:zoom="4.0454538"
   inkscape:cx="249.2926"
   inkscape:cy="227.78388"
   inkscape:window-x="3840"
   inkscape:window-y="73"
   inkscape:window-maximized="1"
   inkscape:current-layer="Layer_1"><inkscape:grid
     type="xygrid"
     id="grid3812" /></sodipodi:namedview>
<style
   type="text/css"
   id="style2">
	.st0{fill:#67F425;}
	.st1{fill:#B7F227;}
	.st2{fill:none;stroke:#FFFFFF;stroke-linecap:round;stroke-linejoin:round;stroke-miterlimit:10;}
</style>
<path
   id="Left_x5F_Inner_x5F_Wrist"
   class="st0"
   d="M268.6,399.3c-2.9-9.9-2.6-16.1-2.7-17.2c-0.1-1.1-1-13.8-3.3-17.3  c-2.3-3.5-4-18.3,1.7-16.9c5.7,1.4,11.7,15,12.5,20.8c0.8,5.8-2,11.9-2,17.4c0,10.6,6.7,9.1,6.9,12.7c0.1,4.2,0.6,10-4.4,8.3  C271.1,405.1,269.6,402.7,268.6,399.3z" />
<path
   id="Left_x5F_Outer_x5F_Wrist"
   class="st1"
   d="M276.8,368.7c0.8,5.8-2,11.9-2,17.4c0,10.6,6.7,9.1,6.9,12.7c0,0,2.1,6.2,3,7.4  c2.7,3.9,4.8,4.2,10.2,3c2.9-0.6,7.9-8.6,4.6-15.5c-3.3-6.9-5-5.6-6-12.9c-1.1-7.3-3.3-18.1-8.1-21.1c-2.6-1.7-6.8-2.2-8.4,0.9  C276.2,362.5,276.8,368.7,276.8,368.7z" />
<path
   id="Right_x5F_Inner_x5F_Wrist"
   class="st0"
   d="M64,396.6c2.9-9.9,0.7-16.2,0.6-17.3c-0.5-3.3,1.1-13,2.5-17  c2.9-8.1,7.3-20.8-0.3-19.4c-4.3,0.8-13,17.5-13.8,23.3c-0.8,5.8,2,11.9,2,17.4c0,10.6-6.7,9.1-6.9,12.7c-0.2,4.2-0.6,10,4.4,8.3  C58.7,402.6,63,400,64,396.6z" />
<path
   id="Right_x5F_Outer_x5F_Wrist"
   class="st1"
   d="M52.9,366.1c-0.8,5.8,2,11.9,2,17.4c0,10.6-6.7,9.1-6.9,12.7c0,0-2.1,6.2-3,7.4  c-2.7,3.9-4.9,4.4-10.2,3c-4.5-1.1-5.1-9.4-1.8-16.3c3.3-6.9,5.6-5.3,6.6-12.5s-1.1-6.1,2-13.2c0.9-2.1,5.1-10.1,9.3-8.5  C55.5,357.8,52.9,366.1,52.9,366.1z" />
<path
   id="Left_x5F_Elbow"
   class="st1"
   d="M264.1,298.6c-16.2,0.6-23.8-19.4-22.4-31.7c1.4-12.3,3.6-14.1-0.2-22.2s-0.8-18.1,6.9-15  c7.6,3,13.9,12,13.7,21.5c-0.1,3.6,1.1,4.2,1.7,5.4c1,2,1.8,3.7,4.1,8.9c1.9,4.3,7,17.9,7.2,20C275.7,292.2,272.2,298.3,264.1,298.6  z" />
<path
   id="Right_x5F_Elbow"
   class="st1"
   d="M63.4,297.3c16.2,0.6,21.2-13,19.6-25.5c-1.5-12.2-0.9-13,2.9-21.1  c3.8-8.1,0.1-24.6-7.5-21.6s-13.3,15.6-13.1,25.1c0.1,3.6,0,4.7-0.6,5.9c-1,2-2.1,3.6-4.1,8.9C56.8,279,46.3,296.7,63.4,297.3z" />
<g
   id="Body_x5F_Outline">
	<g
   id="Body_x5F_Lines">
		<g
   id="g96">
			<path
   class="st2"
   d="M158,465.9c-0.3-11.7,1.1-23.3,4-34.8c2.2-8.8,2-18,3-27c0.2-1.5-0.6-3-0.9-4.5"
   id="path10" />
			<path
   class="st2"
   d="M158,465.9"
   id="path12" />
			<path
   class="st2"
   d="M105.2,465.2"
   id="path14" />
			<path
   class="st2"
   d="M99.3,232.7c3,10.8,6.8,23.1,9.6,34c0.4,1.5,0.7,3.5,1.3,4.4c4.8,7.4,3.6,15.6,3.7,23.6     c0,5.5-0.6,11.1-2,16.5c-2.3,8.9-2.2,18-2.7,27c-0.5,10-3.2,19.7-4.7,29.5c-1.7,10.8-3.9,21.5-4.5,32.5     c-1.1,17.5,0.8,34.8,3.2,52c0.6,4.4,1.3,8.7,2.1,13"
   id="path16" />
			<path
   class="st2"
   d="M223.4,465.2"
   id="path18" />
			<path
   class="st2"
   d="M217.1,322.2c2.5,1.7,2.1,4.7,2.4,7c1.7,18.2,5.7,36,8.5,54c2.2,14.2,2,28.6,0.2,43c-1.5,11.3-2.8,22.6-4,34     c-0.2,1.7-0.4,3.3-0.6,5"
   id="path20" />
			<path
   class="st2"
   d="M139.7,121.5c-6.5,7.1-16.4,9.7-24.7,13.6c-10.2,4.8-20.7,8.9-30.9,13.6c-6.7,3.1-9.1,9.9-12,15.9     c-6.6,13.6-7.9,27.8-4.1,42.5c0.5,2.1,0.2,4.6-0.3,7c-3.2,13.3-3.2,27-2.3,40.5c0.4,6.1,3.4,12,3.5,18.5c0,3,4,4.6,7.2,4.4     c1.2-0.1,2.3-0.3,3.5,0.1"
   id="path22" />
			<path
   class="st2"
   d="M223.6,207.7c1.2,5.8,2.2,11.6,1,17.5c-0.6,2.9,1.7,5.1,2.2,7.6c2.4,10.4,4.8,20.8,8.2,31     c0.6,1.9,0.6,4.2,0.4,6c-1.6,10.9,4.6,20.1,6,30.5c2.1,16.1,9.1,31,15.1,46.1c2.7,6.6,4.4,13.7,6.8,20.4     c4.2,11.5,1.1,23.9,6.4,35.5c3.2,0.5,7-0.4,10.8-0.8c5.4-0.6,10.7,0.1,15,3.9"
   id="path24" />
			<path
   class="st2"
   d="M262,252.7c4.2,9.8,9.9,20.3,12.7,30.5c1.9,7,2.8,14.5,3.5,21.9c2,19.4,5.4,38.5,11.8,57     c1.1,3.3,2.6,5.7,6,7.1c3.2,1.3,14.1,12.7,16,15.9c2.2,3.7,5,7.2,6.9,11.1c1.2,2.5,1.2,5.6,1.7,8.4c-4.6,1.5-8.8,0.4-10.4-4.5     c-1.7-5.3-5.7-6-9.7-7.4"
   id="path26" />
			<path
   class="st2"
   d="M182.5,121.7c10.7,8.6,24.5,13.8,36.5,20c1.9,1,3.7,1.4,5.6,1.8c7.5,1.8,14.3,5.1,20.9,8.7     c7.6,4.2,9.2,12.8,11.5,20.4c2.8,9.4,4.1,19.5,1.8,28.9c-2.5,10.2,2.2,18.8,2.8,28.1c0.5,8.6,2.2,17.2-0.1,26.1     c-1.2,4.5-1.6,9.6-1.8,14.4c-0.2,5.4-2.9,7.4-8.5,6.5c-2.2-0.4-4.3-0.7-6.5-1"
   id="path28" />
			<path
   class="st2"
   d="M93.1,195.7c3.3,2.7,5,6.5,6.9,10c1.2,2.3,2.1,4.4,0.4,7.6c-1.6,2.9-1.3,7.3-0.7,10.8     c0.9,5.4-0.7,10.1-2.2,15c-3.2,10.7-7.7,21.5-7.5,32.5c0.2,8.7-2.6,16.6-3.1,25c-1,15.6-6.4,30.1-11.9,44.5     c-3,7.8-6.8,15.5-8.7,23.6c-1.2,5-2.4,10.5-1.3,15.9c1.3,6.6-0.2,13.1-1.2,19.5c-1.3,9.1-3.5,18-5.4,27c-0.6,2.9-1.6,5.6-4.1,8.1     c-4.6-5.2-0.3-10.6-1.4-15.6"
   id="path30" />
			<path
   class="st2"
   d="M155.8,228c-3.8,2.4-4.1,4.6-23.7,4.6c-8.4,0-21.2-2.2-24.2-3.6"
   id="path32" />
			<path
   class="st2"
   d="M169.4,465.9"
   id="path34" />
			<path
   class="st2"
   d="M163.7,420.5c2.8,4.1,3.3,12.6,4.2,18.2c1.4,9,1.6,18.1,1.4,27.2"
   id="path36" />
			<path
   class="st2"
   d="M224.6,225.2c-1.7,7.8-3.6,21.7-5.6,29.5c-1.7,6.7-2.6,13.8-6,20c-1.5,2.7,0.3,4.7,0.2,7.1     c-0.6,12.2,0.6,24.2,3.8,36c0.5,1.7-0.1,3.4-1.8,5.1c-3.4,3.6-6.4,7.6-9.6,11.4"
   id="path38" />
			<path
   class="st2"
   d="M179.1,107c1.7-0.5,2.9-0.7,4.7-6c2.7-7.6,5.7-15.1,7.7-22.9c0.8-3,2.3-9,2.4-12.1     c0.1-5.3-1.1-24.1-1.1-24.2c-4.1-18.5-24.4-26.1-41.2-22.6c-17.8,3.7-24.8,13.6-25,28.9c-0.1,8.1-0.2,16.8,2.3,25     c1.9,6.2,3.5,12.4,5.9,18.6c2.3,5.9,5.5,11.8,4,18.9c-1,4.8-0.1,10,2.8,14.4"
   id="path40" />
			<path
   class="st2"
   d="M304,394.7c0,0.8-0.3,1.9,0,2.5c5,8.4,5.9,18.4,10.4,27.1c1.2,2.2,1.5,4.9,2,7.5c0.4,1.6-0.1,3.2-1.5,3.9     c-1.4,0.7-2.4-0.4-3.5-1.4c-2.4-2.2-3.1-7-6.2-9.9"
   id="path42" />
			<path
   class="st2"
   d="M65.6,257.2c-8.5,17.9-14.2,37.8-16.5,57.5c-1.7,14-3.5,28.1-6,42c-0.9,5.1-3.1,9-7.3,12.7     c-6.2,5.5-12.9,10.6-17.9,17.6c-3.2,4.5-3.8,9.5-5.7,14.2c-0.8,1.9,0.9,2.6,2.9,2.5c3.9-0.3,6.7-1.6,7.6-6     c0.7-3.5,2.4-6.4,6.8-4.4c1.1,3.9-3.3,6.2-2.9,9.9l-0.5,2c-0.2,6.4-3.9,11.8-5.1,18c-0.6,2.8-1.5,5.6-1.4,8.5     c0,1.8-0.5,4,3.7,3.4c4.4-6,9-13.1,10.3-21.9"
   id="path44" />
			<path
   class="st2"
   d="M111.1,322.2c4.9,4.2,8.4,9.9,13.9,13.6"
   id="path46" />
			<path
   class="st2"
   d="M270.5,402.7c-0.2,0.7-0.6,1.4-0.5,2c2.3,8.7,4.6,17.4,7,26c0.3,1.1,1.2,2.1,1.8,3.1c5-1,2.6-5.9,2.6-8.1"
   id="path48" />
			<path
   class="st2"
   d="M43.5,414.2c-0.6,6.9-3.7,13.2-5.1,20c-0.6,2.8-3.2,4.7-5.4,6.5c-2.5,2-5.1,1.3-4.4-2c1-4.9,1-13,1-13"
   id="path50" />
			<path
   class="st2"
   d="M37.5,437.2c0.7,1.3,1.3,2.7,2,4c3-0.1,4.6-1.7,5.6-4.5c1.2-3.4,3-6.7,4.4-10c0.7-1.7,3.1-3.7,3.5-7"
   id="path52" />
			<path
   class="st2"
   d="M303.5,397.2c-3.8,2.1-7.6,2-11.5,0.5c-2.8-1.1-5.6-1-8.5-1"
   id="path54" />
			<path
   class="st2"
   d="M170.6,154.8c-1.9,2.2-3.7,2.4-9.8,2.2c-4.5-0.1-5.4-0.9-6.7-1.7"
   id="path56" />
			<path
   class="st2"
   d="M287.5,414.2c4.7,1,4.4,5.4,5.9,8.5c2.3,4.9,1.5,10.4,3.1,15.5c0.5,1.4-0.6,1.9-1.5,2.5c-1,0.7-2,0.8-3,0     c-1.6-1.3-3.1-3-3.4-5c-0.9-5.2-4.5-12.3-6.6-17.3"
   id="path58" />
			<path
   class="st2"
   d="M62.5,402.2c-3.5,0.8-6.9,0.7-10.6-0.3c-3.6-1-7.7-0.7-11.4,0.8"
   id="path60" />
			<path
   class="st2"
   d="M181.7,105.4c4.5,9.3-1.8,16.1,1.6,23.4"
   id="path62" />
			<path
   class="st2"
   d="M282,384.2c3.9,4,7.9,7.9,13.5,9.5"
   id="path64" />
			<path
   class="st2"
   d="M299.5,412.2c3.1,4.9,6.7,9.4,5.7,16c-0.5,3.1,1.6,6.5,1.3,10c-0.1,1.4,0.9,3.4-1,3.9     c-1.6,0.5-3.5,0.3-4.5-1.9c-1-2-2.4-3.7-2.4-6c0-1.3-2.2-2.4-3-3.5"
   id="path66" />
			<path
   class="st2"
   d="M231.1,193.7c-3.6,2.9-5.7,6.3-7.3,10.9c-1.7,5-5.8,9.2-9.7,13.1"
   id="path68" />
			<path
   class="st2"
   d="M49.5,394.7c-3.2,1.2-6.3,2.4-9.5,3.5c-3.6,1.2-7.2,1.4-10.5-1"
   id="path70" />
			<path
   class="st2"
   d="M48.5,382.2c-2,5.2-5.6,8.9-10.5,11.5"
   id="path72" />
			<path
   class="st2"
   d="M277.5,365.2c2.7,6.3-3.3,5.2-6,7"
   id="path74" />
			<path
   class="st2"
   d="M122.6,152.7c-1.5,0.2-2.7,0.3-4.2,1.5c-1.5,1.2-2.1,3-2.8,5"
   id="path76" />
			<path
   class="st2"
   d="M102.1,211.2c3.7,1.1,5,6.1,9.5,6"
   id="path78" />
			<path
   class="st2"
   d="M282,387.2c-1,3.2-2,6.3-3,9.5"
   id="path80" />
			<path
   class="st2"
   d="M226.6,187.2c2.1-0.1,2.6,1.9,3.4,3.1c1.4,1.9,2.9,3.5,5.1,4.4"
   id="path82" />
			<path
   class="st2"
   d="M209.1,158.7c0-1.6-4.3-6.1-8.6-5.3"
   id="path84" />
			<path
   class="st2"
   d="M52,371.7c2.1,0.7,4.5,0.2,6.5,1.5"
   id="path86" />
			<path
   class="st2"
   d="M280.5,414.2c2.6,3.6,0,7.7,1,11.5"
   id="path88" />
			<path
   class="st2"
   d="M95.1,190.7c-2,2.2-2.6,5.9-6.5,6"
   id="path90" />
			<path
   class="st2"
   d="M53.5,415.2c-1.8,3.8-1.4,4.3,3,4"
   id="path92" />
			<path
   class="st2"
   d="M168.3,108.6c-2.9,1.8-5.1,1.4-12-1"
   id="path94" />
		</g>
		<path
   class="st2"
   d="M168.8,228c2.1,3.5,14.8,5.8,21.2,4.6c8.3-1.4,18.5-0.4,24.1-2.9"
   id="path98" />
	</g>
</g>
</svg>